<!-- Generated by IcoMoon.io -->
<svg version="1.1" xmlns="http://www.w3.org/2000/svg" width="32" height="32" viewBox="0 0 32 32">
<title>ice-cream-ico</title>
<path fill="#edc977" d="M20.794 14.656c-0.517-0.161-0.672-0.083-0.844 0.067-0.583 0.583-0.167 2.183-0.1 2.633 0.061 0.4 0.544 1.544-0.322 1.517s-0.483-0.8-0.406-1.178c0.083-0.378 0.261-0.933 0.222-2.078-0.039-1.139-0.894-1.278-1.25-1.194-1.050 0.311-0.506 1.25-0.361 1.517 0.139 0.272 0.222 0.933-0.461 0.867s-0.544-0.556-0.406-0.911c0.139-0.35 0.222-0.717-0.261-1.033-0.483-0.311-1.089-0.056-1.267 0.133-0.183 0.189-0.483 0.744-0.706 0.744s-0.2-0.3-0.583-0.256c-0.383 0.039-0.45 0.717-0.361 1.083 0.1 0.283 0.422 1.156-0.222 1.1s-0.261-0.772-0.161-0.989c0.1-0.217 0.072-0.411 0.122-0.678 0.078-0.428-0.361-0.761-0.989-0.744-0.622 0.011-0.422 0.639-0.322 0.867 0.1 0.233-0.083 0.517-0.422 0.517-0.344 0-0.311-0.411-0.283-0.544 0.039-0.167 0.239-0.517-0.3-0.489-0.489 0.022-0.817-0.1-0.961-0.172l5.717 15.028 5.828-15.106c-0.122-0.144-0.45-0.561-0.9-0.7z"></path>
<path fill="#9952ba" d="M20.689 10.472c-0.539-0.028-0.339 0.322-0.3 0.489 0.028 0.133 0.061 0.544-0.283 0.544s-0.522-0.283-0.422-0.517c0.1-0.233 0.3-0.856-0.322-0.867s-1.067 0.322-0.989 0.744c0.050 0.267 0.022 0.461 0.122 0.678s0.483 0.933-0.161 0.989c-0.644 0.056-0.322-0.811-0.222-1.1 0.089-0.367 0.022-1.044-0.361-1.083s-0.361 0.256-0.583 0.256-0.522-0.556-0.706-0.744c-0.183-0.189-0.783-0.45-1.267-0.133-0.483 0.311-0.406 0.678-0.261 1.033 0.139 0.356 0.283 0.839-0.406 0.911-0.683 0.067-0.606-0.594-0.461-0.867s0.683-1.206-0.361-1.517c-0.356-0.089-1.211 0.056-1.25 1.194s0.139 1.694 0.222 2.078c0.083 0.378 0.461 1.156-0.406 1.178-0.867 0.028-0.383-1.117-0.322-1.517 0.067-0.444 0.483-2.050-0.1-2.633-0.172-0.15-0.333-0.228-0.844-0.067-0.472 0.15-0.811 0.6-0.906 0.739-0.367 0.8-0.567 1.694-0.567 2.633 0 0.917 0.156 1.7 0.506 2.483l0.022 0.033c0 0 0.033 0.022 0.089 0.050 0.15 0.072 0.472 0.189 0.961 0.172 0.539-0.028 0.339 0.322 0.3 0.489-0.028 0.133-0.061 0.544 0.283 0.544s0.522-0.283 0.422-0.517c-0.1-0.228-0.3-0.856 0.322-0.867s1.067 0.322 0.989 0.744c-0.050 0.267-0.022 0.461-0.122 0.678s-0.483 0.933 0.161 0.989c0.644 0.056 0.322-0.811 0.222-1.1-0.089-0.367-0.022-1.044 0.361-1.083s0.361 0.256 0.583 0.256 0.522-0.556 0.706-0.744c0.183-0.189 0.783-0.45 1.267-0.133 0.483 0.311 0.406 0.678 0.261 1.033-0.139 0.356-0.283 0.839 0.406 0.911 0.683 0.067 0.606-0.594 0.461-0.867-0.139-0.272-0.683-1.206 0.361-1.517 0.356-0.089 1.211 0.056 1.25 1.194s-0.139 1.694-0.222 2.078c-0.083 0.378-0.461 1.156 0.406 1.178 0.867 0.028 0.383-1.117 0.322-1.517-0.067-0.444-0.483-2.050 0.1-2.633 0.172-0.15 0.333-0.228 0.844-0.067 0.45 0.139 0.778 0.556 0.889 0.717 0.028 0.039 0.044 0.061 0.044 0.061 0.35-0.789 0.544-1.639 0.544-2.55 0-0.928-0.2-1.811-0.556-2.606-0.106 0.022-0.456 0.189-1.028 0.167z"></path>
<path fill="#00b85c" d="M11 9.511c0.517-0.161 0.672-0.083 0.844 0.067 0.583 0.583 0.167 2.183 0.1 2.633-0.061 0.4-0.544 1.544 0.322 1.517s0.483-0.8 0.406-1.178c-0.078-0.378-0.261-0.933-0.222-2.078 0.039-1.139 0.894-1.278 1.25-1.194 1.050 0.311 0.506 1.25 0.361 1.517s-0.222 0.933 0.461 0.867c0.683-0.067 0.544-0.556 0.406-0.911-0.139-0.35-0.222-0.717 0.261-1.033 0.483-0.311 1.089-0.056 1.267 0.133 0.183 0.189 0.483 0.744 0.706 0.744s0.2-0.3 0.583-0.256c0.383 0.039 0.45 0.717 0.361 1.083-0.1 0.283-0.422 1.156 0.222 1.1s0.261-0.772 0.161-0.989c-0.1-0.217-0.072-0.411-0.122-0.678-0.078-0.428 0.361-0.761 0.989-0.744 0.622 0.011 0.422 0.639 0.322 0.867s0.083 0.517 0.422 0.517c0.344 0 0.311-0.411 0.283-0.544-0.039-0.167-0.239-0.517 0.3-0.489 0.572 0.022 0.922-0.144 1.022-0.2 0.022-0.011 0.033-0.017 0.033-0.017l0.022-0.033c0.35-0.789 0.506-1.572 0.506-2.483 0-3.522-2.856-6.372-6.372-6.372-3.522 0-6.372 2.856-6.372 6.372 0 0.917 0.194 1.767 0.544 2.55 0 0 0.011-0.017 0.028-0.039 0.094-0.128 0.433-0.583 0.906-0.728z"></path>
</svg>
