<svg aria-hidden="true" style="position: absolute; width: 0; height: 0; overflow: hidden;" version="1.1" xmlns="http://www.w3.org/2000/svg" xmlns:xlink="http://www.w3.org/1999/xlink">
<defs>
<symbol id="icon-ice-cream-ico" viewBox="0 0 32 32">
<path fill="#edc977" style="fill: var(--color1, #edc977)" d="M20.794 14.656c-0.517-0.161-0.672-0.083-0.844 0.067-0.583 0.583-0.167 2.183-0.1 2.633 0.061 0.4 0.544 1.544-0.322 1.517s-0.483-0.8-0.406-1.178c0.083-0.378 0.261-0.933 0.222-2.078-0.039-1.139-0.894-1.278-1.25-1.194-1.050 0.311-0.506 1.25-0.361 1.517 0.139 0.272 0.222 0.933-0.461 0.867s-0.544-0.556-0.406-0.911c0.139-0.35 0.222-0.717-0.261-1.033-0.483-0.311-1.089-0.056-1.267 0.133-0.183 0.189-0.483 0.744-0.706 0.744s-0.2-0.3-0.583-0.256c-0.383 0.039-0.45 0.717-0.361 1.083 0.1 0.283 0.422 1.156-0.222 1.1s-0.261-0.772-0.161-0.989c0.1-0.217 0.072-0.411 0.122-0.678 0.078-0.428-0.361-0.761-0.989-0.744-0.622 0.011-0.422 0.639-0.322 0.867 0.1 0.233-0.083 0.517-0.422 0.517-0.344 0-0.311-0.411-0.283-0.544 0.039-0.167 0.239-0.517-0.3-0.489-0.489 0.022-0.817-0.1-0.961-0.172l5.717 15.028 5.828-15.106c-0.122-0.144-0.45-0.561-0.9-0.7z"></path>
<path fill="#9952ba" style="fill: var(--color2, #9952ba)" d="M20.689 10.472c-0.539-0.028-0.339 0.322-0.3 0.489 0.028 0.133 0.061 0.544-0.283 0.544s-0.522-0.283-0.422-0.517c0.1-0.233 0.3-0.856-0.322-0.867s-1.067 0.322-0.989 0.744c0.050 0.267 0.022 0.461 0.122 0.678s0.483 0.933-0.161 0.989c-0.644 0.056-0.322-0.811-0.222-1.1 0.089-0.367 0.022-1.044-0.361-1.083s-0.361 0.256-0.583 0.256-0.522-0.556-0.706-0.744c-0.183-0.189-0.783-0.45-1.267-0.133-0.483 0.311-0.406 0.678-0.261 1.033 0.139 0.356 0.283 0.839-0.406 0.911-0.683 0.067-0.606-0.594-0.461-0.867s0.683-1.206-0.361-1.517c-0.356-0.089-1.211 0.056-1.25 1.194s0.139 1.694 0.222 2.078c0.083 0.378 0.461 1.156-0.406 1.178-0.867 0.028-0.383-1.117-0.322-1.517 0.067-0.444 0.483-2.050-0.1-2.633-0.172-0.15-0.333-0.228-0.844-0.067-0.472 0.15-0.811 0.6-0.906 0.739-0.367 0.8-0.567 1.694-0.567 2.633 0 0.917 0.156 1.7 0.506 2.483l0.022 0.033c0 0 0.033 0.022 0.089 0.050 0.15 0.072 0.472 0.189 0.961 0.172 0.539-0.028 0.339 0.322 0.3 0.489-0.028 0.133-0.061 0.544 0.283 0.544s0.522-0.283 0.422-0.517c-0.1-0.228-0.3-0.856 0.322-0.867s1.067 0.322 0.989 0.744c-0.050 0.267-0.022 0.461-0.122 0.678s-0.483 0.933 0.161 0.989c0.644 0.056 0.322-0.811 0.222-1.1-0.089-0.367-0.022-1.044 0.361-1.083s0.361 0.256 0.583 0.256 0.522-0.556 0.706-0.744c0.183-0.189 0.783-0.45 1.267-0.133 0.483 0.311 0.406 0.678 0.261 1.033-0.139 0.356-0.283 0.839 0.406 0.911 0.683 0.067 0.606-0.594 0.461-0.867-0.139-0.272-0.683-1.206 0.361-1.517 0.356-0.089 1.211 0.056 1.25 1.194s-0.139 1.694-0.222 2.078c-0.083 0.378-0.461 1.156 0.406 1.178 0.867 0.028 0.383-1.117 0.322-1.517-0.067-0.444-0.483-2.050 0.1-2.633 0.172-0.15 0.333-0.228 0.844-0.067 0.45 0.139 0.778 0.556 0.889 0.717 0.028 0.039 0.044 0.061 0.044 0.061 0.35-0.789 0.544-1.639 0.544-2.55 0-0.928-0.2-1.811-0.556-2.606-0.106 0.022-0.456 0.189-1.028 0.167z"></path>
<path fill="#00b85c" style="fill: var(--color3, #00b85c)" d="M11 9.511c0.517-0.161 0.672-0.083 0.844 0.067 0.583 0.583 0.167 2.183 0.1 2.633-0.061 0.4-0.544 1.544 0.322 1.517s0.483-0.8 0.406-1.178c-0.078-0.378-0.261-0.933-0.222-2.078 0.039-1.139 0.894-1.278 1.25-1.194 1.050 0.311 0.506 1.25 0.361 1.517s-0.222 0.933 0.461 0.867c0.683-0.067 0.544-0.556 0.406-0.911-0.139-0.35-0.222-0.717 0.261-1.033 0.483-0.311 1.089-0.056 1.267 0.133 0.183 0.189 0.483 0.744 0.706 0.744s0.2-0.3 0.583-0.256c0.383 0.039 0.45 0.717 0.361 1.083-0.1 0.283-0.422 1.156 0.222 1.1s0.261-0.772 0.161-0.989c-0.1-0.217-0.072-0.411-0.122-0.678-0.078-0.428 0.361-0.761 0.989-0.744 0.622 0.011 0.422 0.639 0.322 0.867s0.083 0.517 0.422 0.517c0.344 0 0.311-0.411 0.283-0.544-0.039-0.167-0.239-0.517 0.3-0.489 0.572 0.022 0.922-0.144 1.022-0.2 0.022-0.011 0.033-0.017 0.033-0.017l0.022-0.033c0.35-0.789 0.506-1.572 0.506-2.483 0-3.522-2.856-6.372-6.372-6.372-3.522 0-6.372 2.856-6.372 6.372 0 0.917 0.194 1.767 0.544 2.55 0 0 0.011-0.017 0.028-0.039 0.094-0.128 0.433-0.583 0.906-0.728z"></path>
</symbol>
<!-- symbol(s) -->
<symbol id="icon-facebook" viewBox="0 0 16 32">
<path d="M14.266 15.97h-4.176v15.39h-6.327v-15.39h-3.009v-5.409h3.009v-3.5c0-2.503 1.182-6.422 6.384-6.422l4.687 0.020v5.25h-3.401c-0.558 0-1.342 0.28-1.342 1.474v3.183h4.729l-0.553 5.403z"></path>
</symbol>
<symbol id="icon-telegram" viewBox="0 0 40 32">
<path d="M16.205 20.751l-0.635 8.339c0.909 0 1.302-0.364 1.774-0.802l4.261-3.801 8.829 6.035c1.619 0.842 2.76 0.399 3.197-1.39l5.797-25.346c0.514-2.234-0.866-3.108-2.443-2.56l-34.065 12.172c-2.325 0.842-2.29 2.052-0.395 2.6l8.709 2.528 20.229-11.814c0.952-0.588 1.818-0.263 1.106 0.326l-16.364 13.713z"></path>
</symbol>
<symbol id="icon-github" viewBox="0 0 32 32">
<path d="M16 0.941c-8.271 0-15.059 6.788-15.059 15.059 0 7.058 4.953 13.47 11.529 15.059v-4.982c-0.652 0.143-1.251 0.147-1.915-0.049-0.89-0.263-1.613-0.855-2.15-1.759-0.342-0.577-0.949-1.203-1.581-1.157l-0.155-1.758c1.368-0.117 2.551 0.833 3.254 2.014 0.312 0.525 0.671 0.832 1.132 0.968 0.446 0.131 0.924 0.068 1.481-0.129 0.14-1.116 0.651-1.534 1.037-2.122v-0.001c-3.922-0.585-5.486-2.666-6.106-4.308-0.822-2.181-0.381-4.905 1.073-6.627 0.028-0.034 0.079-0.121 0.060-0.183-0.667-2.014 0.146-3.679 0.176-3.856 0.769 0.228 0.894-0.229 3.342 1.258l0.423 0.254c0.177 0.105 0.121 0.045 0.298 0.032 1.022-0.278 2.099-0.431 3.16-0.445 1.069 0.014 2.14 0.167 3.204 0.456l0.137 0.014c-0.012-0.002 0.037-0.009 0.12-0.058 3.057-1.852 2.947-1.247 3.767-1.513 0.030 0.177 0.831 1.87 0.172 3.858-0.089 0.274 2.65 2.782 1.132 6.809-0.62 1.643-2.184 3.724-6.106 4.309v0.001c0.503 0.766 1.107 1.174 1.104 2.755v6.219c6.577-1.589 11.529-8.001 11.529-15.059 0-8.271-6.787-15.059-15.059-15.059v0z"></path>
</symbol>
<symbol id="icon-arrow-right2" viewBox="0 0 32 32">
<path d="M19.414 27.414l10-10c0.781-0.781 0.781-2.047 0-2.828l-10-10c-0.781-0.781-2.047-0.781-2.828 0s-0.781 2.047 0 2.828l6.586 6.586h-19.172c-1.105 0-2 0.895-2 2s0.895 2 2 2h19.172l-6.586 6.586c-0.39 0.39-0.586 0.902-0.586 1.414s0.195 1.024 0.586 1.414c0.781 0.781 2.047 0.781 2.828 0z"></path>
</symbol>
<symbol id="icon-dots" viewBox="0 0 133 32">
<path fill="#fff" style="fill: var(--color1, #fff)" d="M81.515 16c0 8.837-6.843 16-15.285 16s-15.285-7.163-15.285-16c0-8.837 6.843-16 15.285-16s15.285 7.163 15.285 16z"></path>
<path fill="#fff" style="fill: var(--color1, #fff)" d="M30.571 16c0 8.837-6.843 16-15.285 16s-15.285-7.163-15.285-16c0-8.837 6.843-16 15.285-16s15.285 7.163 15.285 16z"></path>
<path fill="#fff" style="fill: var(--color1, #fff)" d="M132.459 16c0 8.837-6.843 16-15.285 16s-15.285-7.163-15.285-16c0-8.837 6.843-16 15.285-16s15.285 7.163 15.285 16z"></path>
</symbol>
<symbol id="icon-close_40px" viewBox="0 0 32 32">
<path d="M23.733 10.304l-1.504-1.504-5.963 5.963-5.963-5.963-1.504 1.504 5.963 5.963-5.963 5.963 1.504 1.504 5.963-5.963 5.963 5.963 1.504-1.504-5.963-5.963 5.963-5.963z"></path>
</symbol>
<symbol id="icon-cont-btn-r" viewBox="0 0 19 32">
<path  fill="none" style="stroke: var(--color1, #D41342)" stroke-linejoin="round" stroke-linecap="round" stroke-miterlimit="4" stroke-width="6.4" d="M3.2 3.2l11.553 12.8-11.553 12.8"></path>
</symbol>
<symbol id="icon-cont-btn-w" viewBox="0 0 19 32">
<path  fill="none" style="stroke: var(--color1, #fff)" stroke-linejoin="round" stroke-linecap="round" stroke-miterlimit="4" stroke-width="6.4" d="M3.2 3.2l11.553 12.8-11.553 12.8"></path>
</symbol>
<symbol id="icon-quotes" viewBox="0 0 43 32">
<path fill="#e1e1e1" style="fill: var(--color1, #e1e1e1)" d="M32.014 0c1.929 0 3.75 0.52 5.464 1.561s3.107 2.537 4.179 4.488c1.029 1.951 1.543 4.249 1.543 6.894s-0.643 5.225-1.929 7.74c-0.429 0.911-1.2 2.081-2.314 3.512-1.157 1.431-2.229 2.667-3.214 3.707l-4.050 4.098-2.893-4.813c2.014-1.257 3.793-2.818 5.336-4.683 1.543-1.821 2.314-3.491 2.314-5.008 0-0.78-0.171-1.409-0.514-1.886-1.5 1.084-3.171 1.626-5.014 1.626-1.329 0-2.593-0.412-3.793-1.236-1.243-0.78-2.229-1.821-2.957-3.122-0.771-1.258-1.157-2.558-1.157-3.902 0-1.518 0.45-2.97 1.35-4.358 0.857-1.388 1.993-2.515 3.407-3.382 1.371-0.824 2.786-1.236 4.243-1.236zM8.936 0c1.929 0 3.75 0.52 5.464 1.561s3.107 2.537 4.179 4.488c1.029 1.951 1.543 4.249 1.543 6.894 0 1.864-0.236 3.534-0.707 5.008-0.471 1.518-1.286 3.1-2.443 4.748-1.114 1.561-2.164 2.862-3.15 3.902-0.986 1.084-2.7 2.884-5.143 5.398l-2.893-4.813c2.014-1.257 3.793-2.818 5.336-4.683 1.543-1.821 2.314-3.491 2.314-5.008 0-0.78-0.171-1.409-0.514-1.886-1.5 1.084-3.171 1.626-5.014 1.626-1.329 0-2.593-0.412-3.793-1.236-1.243-0.78-2.229-1.821-2.957-3.122-0.771-1.258-1.157-2.558-1.157-3.902 0-1.518 0.429-2.97 1.286-4.358s1.993-2.515 3.407-3.382c1.371-0.824 2.786-1.236 4.243-1.236z"></path>
</symbol>
<symbol id="icon-Burger" viewBox="0 0 46 32"><path fill="none" stroke="#d41443" style="stroke:var(--color1, #d41443)" stroke-width="2.286" d="M0 2.286h45.714M0 16h45.714M0 29.714h45.714"/></symbol>
<symbol id="icon-vector" viewBox="0 0 32 32"><path d="M32 3.223 28.777 0 16 12.777 3.223 0 0 3.223 12.777 16 0 28.777 3.223 32 16 19.223 28.777 32 32 28.777 19.223 16 32 3.223z"/></symbol>
<symbol id="icon-arrow-up" viewBox="0 0 32 32">
<path d="M27.414 12.586l-10-10c-0.781-0.781-2.047-0.781-2.828 0l-10 10c-0.781 0.781-0.781 2.047 0 2.828s2.047 0.781 2.828 0l6.586-6.586v19.172c0 1.105 0.895 2 2 2s2-0.895 2-2v-19.172l6.586 6.586c0.39 0.39 0.902 0.586 1.414 0.586s1.024-0.195 1.414-0.586c0.781-0.781 0.781-2.047 0-2.828z"></path>
</symbol>
</defs>
</svg>
